# xmcd
#
# Track frame offsets: 
#        150
#        22823
#        41798
#        61598
#        79341
#        102128
#        133874
#        153218
#        172080
#        192435
#        209578
#        228929
#
# Disc length: 3427 seconds
#
# Revision: 0
# Processed by: cddbd v1.5.2PL0 Copyright (c) Steve Scherf et al.
# Submitted via: ExactAudioCopy v0.95b4
#
DISCID=9c0d610c
DTITLE=Nixon, Julia - keepin' on track
DYEAR=2007
DGENRE=R&B
TTITLE0=Southern Boy
TTITLE1=Walking in the Rain
TTITLE2=Old Fashioned Love
TTITLE3=Girlfriends
TTITLE4=Guess Who I Saw Today/Girfriends
TTITLE5=Bring Back Springtime
TTITLE6=Flow
TTITLE7=Then
TTITLE8='Til Death Do Us Part
TTITLE9=Sirens
TTITLE10=Here Today Gone Tomorrow
TTITLE11=One Night Only
EXTD=
EXTT0=
EXTT1=
EXTT2=
EXTT3=
EXTT4=
EXTT5=
EXTT6=
EXTT7=
EXTT8=
EXTT9=
EXTT10=
EXTT11=
PLAYORDER=
